REM DIRINDEX 1\2,1\3,1\4,1\5
REM DIRNAME cjc044,folder01,folder02,folder03,folder04
TITLE ""
FILE "1800_109.mp3" MP3
  TRACK 01 AUDIO
    TITLE "2:cjc044_3073"
    INDEX 01 00:00:00
  TRACK 02 AUDIO
    TITLE "0:"
    INDEX 01 00:01:13
  TRACK 03 AUDIO
    TITLE "3:cjc044_3074"
    INDEX 01 00:01:71
  TRACK 04 AUDIO
    TITLE "0:"
    INDEX 01 00:03:15
  TRACK 05 AUDIO
    TITLE "4:cjc044_3075"
    INDEX 01 00:03:70
  TRACK 06 AUDIO
    TITLE "0:"
    INDEX 01 00:05:12
  TRACK 07 AUDIO
    TITLE "5:cjc044_3076"
    INDEX 01 00:05:54
  TRACK 08 AUDIO
    TITLE "0:"
    INDEX 01 00:08:36
  TRACK 09 AUDIO
    TITLE "2:cjc044_3077"
    INDEX 01 00:10:18
  TRACK 10 AUDIO
    TITLE "0:"
    INDEX 01 00:11:13
  TRACK 11 AUDIO
    TITLE "3:cjc044_3078"
    INDEX 01 00:11:72
  TRACK 12 AUDIO
    TITLE "0:"
    INDEX 01 00:13:10
  TRACK 13 AUDIO
    TITLE "4:cjc044_3079"
    INDEX 01 00:13:69
  TRACK 14 AUDIO
    TITLE "0:"
    INDEX 01 00:14:64
  TRACK 15 AUDIO
    TITLE "5:cjc044_3080"
    INDEX 01 00:15:38
  TRACK 16 AUDIO
    TITLE "0:"
    INDEX 01 00:18:25
  TRACK 17 AUDIO
    TITLE "2:cjc044_3081"
    INDEX 01 00:20:10
  TRACK 18 AUDIO
    TITLE "0:"
    INDEX 01 00:21:27
  TRACK 19 AUDIO
    TITLE "3:cjc044_3082"
    INDEX 01 00:22:13
  TRACK 20 AUDIO
    TITLE "0:"
    INDEX 01 00:23:14
  TRACK 21 AUDIO
    TITLE "4:cjc044_3083"
    INDEX 01 00:24:04
  TRACK 22 AUDIO
    TITLE "0:"
    INDEX 01 00:25:19
  TRACK 23 AUDIO
    TITLE "5:cjc044_3084"
    INDEX 01 00:25:70
  TRACK 24 AUDIO
    TITLE "0:"
    INDEX 01 00:29:09
  TRACK 25 AUDIO
    TITLE "2:cjc044_3085"
    INDEX 01 00:30:63
  TRACK 26 AUDIO
    TITLE "0:"
    INDEX 01 00:32:05
  TRACK 27 AUDIO
    TITLE "3:cjc044_3086"
    INDEX 01 00:32:64
  TRACK 28 AUDIO
    TITLE "0:"
    INDEX 01 00:34:10
  TRACK 29 AUDIO
    TITLE "4:cjc044_3087"
    INDEX 01 00:34:67
  TRACK 30 AUDIO
    TITLE "0:"
    INDEX 01 00:36:11
  TRACK 31 AUDIO
    TITLE "5:cjc044_3088"
    INDEX 01 00:36:66
  TRACK 32 AUDIO
    TITLE "0:"
    INDEX 01 00:40:09
  TRACK 33 AUDIO
    TITLE "2:cjc044_3089"
    INDEX 01 00:41:67
  TRACK 34 AUDIO
    TITLE "0:"
    INDEX 01 00:43:07
  TRACK 35 AUDIO
    TITLE "3:cjc044_3090"
    INDEX 01 00:43:66
  TRACK 36 AUDIO
    TITLE "0:"
    INDEX 01 00:44:56
  TRACK 37 AUDIO
    TITLE "4:cjc044_3091"
    INDEX 01 00:45:43
  TRACK 38 AUDIO
    TITLE "0:"
    INDEX 01 00:46:60
  TRACK 39 AUDIO
    TITLE "5:cjc044_3092"
    INDEX 01 00:47:34
  TRACK 40 AUDIO
    TITLE "0:"
    INDEX 01 00:51:20
  TRACK 41 AUDIO
    TITLE "2:cjc044_3093"
    INDEX 01 00:53:04
  TRACK 42 AUDIO
    TITLE "0:"
    INDEX 01 00:54:42
  TRACK 43 AUDIO
    TITLE "3:cjc044_3094"
    INDEX 01 00:55:22
  TRACK 44 AUDIO
    TITLE "0:"
    INDEX 01 00:56:47
  TRACK 45 AUDIO
    TITLE "4:cjc044_3095"
    INDEX 01 00:57:23
  TRACK 46 AUDIO
    TITLE "0:"
    INDEX 01 00:58:60
  TRACK 47 AUDIO
    TITLE "5:cjc044_3096"
    INDEX 01 00:59:39
  TRACK 48 AUDIO
    TITLE "0:"
    INDEX 01 01:02:65
  TRACK 49 AUDIO
    TITLE "2:cjc044_3097"
    INDEX 01 01:04:47
  TRACK 50 AUDIO
    TITLE "0:"
    INDEX 01 01:05:54
  TRACK 51 AUDIO
    TITLE "3:cjc044_3098"
    INDEX 01 01:06:38
  TRACK 52 AUDIO
    TITLE "0:"
    INDEX 01 01:07:31
  TRACK 53 AUDIO
    TITLE "4:cjc044_3099"
    INDEX 01 01:08:15
  TRACK 54 AUDIO
    TITLE "0:"
    INDEX 01 01:09:22
  TRACK 55 AUDIO
    TITLE "5:cjc044_3100"
    INDEX 01 01:09:73
  TRACK 56 AUDIO
    TITLE "0:"
    INDEX 01 01:12:64
  TRACK 57 AUDIO
    TITLE "2:cjc044_3101"
    INDEX 01 01:14:51
  TRACK 58 AUDIO
    TITLE "0:"
    INDEX 01 01:15:66
  TRACK 59 AUDIO
    TITLE "3:cjc044_3102"
    INDEX 01 01:16:44
  TRACK 60 AUDIO
    TITLE "0:"
    INDEX 01 01:17:65
  TRACK 61 AUDIO
    TITLE "4:cjc044_3103"
    INDEX 01 01:18:33
  TRACK 62 AUDIO
    TITLE "0:"
    INDEX 01 01:19:50
  TRACK 63 AUDIO
    TITLE "5:cjc044_3104"
    INDEX 01 01:20:34
  TRACK 64 AUDIO
    TITLE "0:"
    INDEX 01 01:24:16
  TRACK 65 AUDIO
    TITLE "2:cjc044_3105"
    INDEX 01 01:25:70
  TRACK 66 AUDIO
    TITLE "0:"
    INDEX 01 01:27:18
  TRACK 67 AUDIO
    TITLE "3:cjc044_3106"
    INDEX 01 01:27:69
  TRACK 68 AUDIO
    TITLE "0:"
    INDEX 01 01:30:01
  TRACK 69 AUDIO
    TITLE "4:cjc044_3107"
    INDEX 01 01:30:60
  TRACK 70 AUDIO
    TITLE "0:"
    INDEX 01 01:32:04
  TRACK 71 AUDIO
    TITLE "5:cjc044_3108"
    INDEX 01 01:32:62
  TRACK 72 AUDIO
    TITLE "0:"
    INDEX 01 01:36:41
